<svg width="40" height="40" viewBox="0 0 40 40" fill="none" xmlns="http://www.w3.org/2000/svg">
<g id="food">
<path id="Vector" d="M30.1 38.3333H32.8667C34.2667 38.3333 35.4167 37.25 35.5833 35.8833L38.3333 8.41663H30V1.66663H26.7167V8.41663H18.4333L18.9333 12.3166C21.7833 13.1 24.45 14.5166 26.05 16.0833C28.45 18.45 30.1 20.9 30.1 24.9V38.3333ZM1.66666 36.6666V35H26.7167V36.6666C26.7167 37.5666 25.9667 38.3333 25 38.3333H3.33333C2.41666 38.3333 1.66666 37.5666 1.66666 36.6666ZM26.7167 25C26.7167 11.6666 1.66666 11.6666 1.66666 25H26.7167ZM1.66666 28.3333H26.6667V31.6666H1.66666V28.3333Z" fill="#84545A"/>
</g>
</svg>
