<svg width="40" height="40" viewBox="0 0 40 40" fill="none" xmlns="http://www.w3.org/2000/svg">
<g id="cupboard">
<path id="Vector" d="M28.3333 3.33337H11.6667C9.83334 3.33337 8.33334 4.83337 8.33334 6.66671V31.6667C8.33334 33.5167 9.83334 35 11.6667 35V36.6667H15V35H25V36.6667H28.3333V35C30.1833 35 31.6667 33.5167 31.6667 31.6667V6.66671C31.6667 4.83337 30.1833 3.33337 28.3333 3.33337ZM16.6667 30H13.3333V25H16.6667V30ZM26.6667 30H23.3333V25H26.6667V30ZM28.3333 20H11.6667V15H28.3333V20ZM28.3333 11.6667H11.6667V6.66671H28.3333V11.6667Z" fill="#84545A"/>
</g>
</svg>
