<svg width="40" height="40" viewBox="0 0 40 40" fill="none" xmlns="http://www.w3.org/2000/svg">
<g id="table-chair">
<path id="Vector" d="M20 36.6667H10C10 35.7826 10.3512 34.9348 10.9763 34.3097C11.6014 33.6846 12.4493 33.3334 13.3333 33.3334V13.3334H3.33334V8.33337H26.6667V13.3334H16.6667V33.3334C17.5507 33.3334 18.3986 33.6846 19.0237 34.3097C19.6488 34.9348 20 35.7826 20 36.6667ZM36.6667 3.33337V36.6667H33.3333V25H25V36.6667H21.6667V23.3334C21.6667 22.4493 22.0179 21.6015 22.643 20.9764C23.2681 20.3512 24.1159 20 25 20H33.3333V3.33337H36.6667Z" fill="#84545A"/>
</g>
</svg>
