<svg width="40" height="40" viewBox="0 0 40 40" fill="none" xmlns="http://www.w3.org/2000/svg">
<g id="shower">
<path id="Vector" d="M35 23.3334V25C35 28.1834 33.2167 30.95 30.5833 32.35L31.6667 36.6667H28.3333L27.5 33.3334C27.2167 33.3334 26.95 33.3334 26.6667 33.3334H13.3333C13.05 33.3334 12.7833 33.3334 12.5 33.3334L11.6667 36.6667H8.33334L9.41667 32.35C6.78334 30.95 5 28.1834 5 25V23.3334H3.33334V20H33.3333V8.33337C33.3333 7.89135 33.1577 7.46742 32.8452 7.15486C32.5326 6.8423 32.1087 6.66671 31.6667 6.66671C30.8333 6.66671 30.2 7.23337 30 7.98337C31.05 8.88337 31.6667 10.2167 31.6667 11.6667H21.6667C21.6667 10.3406 22.1935 9.06886 23.1311 8.13117C24.0688 7.19349 25.3406 6.66671 26.6667 6.66671C26.7667 6.66671 26.85 6.66671 26.95 6.66671C27.6333 4.73337 29.4833 3.33337 31.6667 3.33337C32.9928 3.33337 34.2645 3.86016 35.2022 4.79784C36.1399 5.73552 36.6667 7.00729 36.6667 8.33337V23.3334H35ZM31.6667 23.3334H8.33334V25C8.33334 26.3261 8.86012 27.5979 9.7978 28.5356C10.7355 29.4733 12.0073 30 13.3333 30H26.6667C27.9928 30 29.2645 29.4733 30.2022 28.5356C31.1399 27.5979 31.6667 26.3261 31.6667 25V23.3334Z" fill="#84545A"/>
</g>
</svg>
