<svg width="40" height="40" viewBox="0 0 40 40" fill="none" xmlns="http://www.w3.org/2000/svg">
<g id="wifi (2) 1" clip-path="url(#clip0_5_54)">
<g id="Group">
<g id="Group_2">
<path id="Vector" d="M19.9219 36.4453C21.3458 36.4453 22.5001 35.291 22.5001 33.8672C22.5001 32.4433 21.3458 31.2891 19.9219 31.2891C18.4981 31.2891 17.3438 32.4433 17.3438 33.8672C17.3438 35.291 18.4981 36.4453 19.9219 36.4453Z" fill="#84545A"/>
</g>
</g>
<g id="Group_3">
<g id="Group_4">
<path id="Vector_2" d="M39.5805 12.0987C34.4454 6.58913 27.4917 3.55477 19.9997 3.55469C12.5083 3.55477 5.55465 6.58913 0.419429 12.0987C-0.168851 12.73 -0.134086 13.7187 0.497163 14.3071C1.12849 14.8954 2.11716 14.8607 2.70552 14.2294C7.24301 9.36093 13.3849 6.67976 20.0003 6.67968C26.6151 6.67976 32.7569 9.36093 37.2944 14.2294C37.6022 14.5595 38.0194 14.7265 38.4378 14.7265C38.8193 14.7265 39.2017 14.5876 39.5028 14.3071C40.134 13.7187 40.1689 12.73 39.5805 12.0987Z" fill="#84545A"/>
</g>
</g>
<g id="Group_5">
<g id="Group_6">
<path id="Vector_3" d="M33.8432 18.5514C30.0474 14.7269 25.131 12.6207 19.9998 12.6208C14.8674 12.6209 9.95098 14.7272 6.1563 18.5515C5.54849 19.1641 5.55232 20.1534 6.1649 20.7612C6.77747 21.369 7.76677 21.3652 8.37458 20.7526C11.5781 17.524 15.7067 15.7459 19.9998 15.7458C24.2918 15.7457 28.4204 17.5239 31.6251 20.7528C31.9306 21.0605 32.3323 21.2146 32.7341 21.2146C33.132 21.2146 33.5301 21.0635 33.8349 20.7611C34.4473 20.1532 34.4511 19.1639 33.8432 18.5514Z" fill="#84545A"/>
</g>
</g>
<g id="Group_7">
<g id="Group_8">
<path id="Vector_4" d="M27.5899 25.0228C25.5571 23.0088 22.6433 21.7578 19.9853 21.7578C19.985 21.7578 19.9844 21.7578 19.9841 21.7578H19.8716C19.8711 21.7578 19.8709 21.7578 19.8704 21.7578C17.2123 21.7578 14.2983 23.0089 12.2655 25.0228C11.6526 25.6301 11.648 26.6194 12.2553 27.2325C12.5609 27.5408 12.963 27.6953 13.3653 27.6953C13.7627 27.6953 14.1603 27.5446 14.4649 27.2428C15.912 25.8091 18.0337 24.8828 19.8705 24.8828C19.8708 24.8828 19.8711 24.8828 19.8713 24.8828H19.9844C19.9847 24.8828 19.9848 24.8828 19.9851 24.8828C21.8217 24.8828 23.9435 25.8091 25.3905 27.2428C26.0034 27.8501 26.9929 27.8457 27.6001 27.2325C28.2076 26.6195 28.203 25.6301 27.5899 25.0228Z" fill="#84545A"/>
</g>
</g>
</g>
<defs>
<clipPath id="clip0_5_54">
<rect width="40" height="40" fill="white"/>
</clipPath>
</defs>
</svg>
